<svg width="91" height="90" viewBox="0 0 91 90" fill="none" xmlns="http://www.w3.org/2000/svg">
<rect x="1" y="1" width="89" height="88" rx="44" fill="#E67522"/>
<rect x="1" y="1" width="89" height="88" rx="44" stroke="white" stroke-width="2"/>
<path d="M68.9325 42.3H60.2784L67.2126 35.442C68.2773 34.389 68.2773 32.688 67.2126 31.635C66.1479 30.582 64.4007 30.582 63.336 31.635L52.5525 42.3H47.0925V36.9L57.876 26.235C58.9407 25.182 58.9407 23.454 57.876 22.401C56.8113 21.348 55.0914 21.348 54.0267 22.401L47.0925 29.259V20.7C47.0925 19.215 45.864 18 44.3625 18C42.861 18 41.6325 19.215 41.6325 20.7V29.259L34.6983 22.401C33.6336 21.348 31.9137 21.348 30.849 22.401C29.7843 23.454 29.7843 25.182 30.849 26.235L41.6325 36.9V42.3H36.1725L25.389 31.635C24.3243 30.582 22.5771 30.582 21.5124 31.635C20.4477 32.688 20.4477 34.389 21.5124 35.442L28.4466 42.3H19.7925C18.291 42.3 17.0625 43.515 17.0625 45C17.0625 46.485 18.291 47.7 19.7925 47.7H28.4466L21.5124 54.558C20.4477 55.611 20.4477 57.312 21.5124 58.365C22.5771 59.418 24.3243 59.418 25.389 58.365L36.1725 47.7H41.6325V53.1L30.849 63.765C29.7843 64.818 29.7843 66.546 30.849 67.599C31.9137 68.652 33.6336 68.652 34.6983 67.599L41.6325 60.741V69.3C41.6325 70.785 42.861 72 44.3625 72C45.864 72 47.0925 70.785 47.0925 69.3V60.741L54.0267 67.599C55.0914 68.652 56.8113 68.652 57.876 67.599C58.9407 66.546 58.9407 64.818 57.876 63.765L47.0925 53.1V47.7H52.5525L63.336 58.365C64.4007 59.418 66.1479 59.418 67.2126 58.365C68.2773 57.312 68.2773 55.611 67.2126 54.558L60.2784 47.7H68.9325C70.434 47.7 71.6625 46.485 71.6625 45C71.6625 43.515 70.434 42.3 68.9325 42.3Z" fill="white"/>
</svg>
