<svg width="90" height="90" viewBox="0 0 90 90" fill="none" xmlns="http://www.w3.org/2000/svg">
<rect x="1" y="1" width="88" height="88" rx="44" fill="#E67522"/>
<rect x="1" y="1" width="88" height="88" rx="44" stroke="white" stroke-width="2"/>
<path d="M53.1667 30.3659C55.7333 30.3659 57.8333 28.2585 57.8333 25.6829C57.8333 23.1073 55.7333 21 53.1667 21C50.6 21 48.5 23.1073 48.5 25.6829C48.5 28.2585 50.6 30.3659 53.1667 30.3659ZM28.6667 45.5854C22.1333 45.5854 17 50.7366 17 57.2927C17 63.8488 22.1333 69 28.6667 69C35.2 69 40.3333 63.8488 40.3333 57.2927C40.3333 50.7366 35.2 45.5854 28.6667 45.5854ZM28.6667 65.4878C24.2333 65.4878 20.5 61.7415 20.5 57.2927C20.5 52.8439 24.2333 49.0976 28.6667 49.0976C33.1 49.0976 36.8333 52.8439 36.8333 57.2927C36.8333 61.7415 33.1 65.4878 28.6667 65.4878ZM42.2 42.0732L47.8 36.4537L49.6667 38.3268C52.14 40.8088 55.22 42.4946 58.9067 43.0566C60.3067 43.2673 61.5667 42.1434 61.5667 40.7151C61.5667 39.5678 60.7033 38.5844 59.5833 38.3971C56.9933 37.9756 54.87 36.7346 53.1667 35.0488L48.7333 30.6C47.5667 29.6634 46.4 29.1951 45 29.1951C43.6 29.1951 42.4333 29.6634 41.7333 30.6L35.2 37.1561C34.2667 38.0927 33.8 39.2634 33.8 40.4341C33.8 41.839 34.2667 43.0098 35.2 43.7122L42.6667 50.2683V59.6341C42.6667 60.922 43.7167 61.9756 45 61.9756C46.2833 61.9756 47.3333 60.922 47.3333 59.6341V49.3317C47.3333 48.1141 46.8667 46.9668 46.05 46.1005L42.2 42.0732ZM61.3333 45.5854C54.8 45.5854 49.6667 50.7366 49.6667 57.2927C49.6667 63.8488 54.8 69 61.3333 69C67.8667 69 73 63.8488 73 57.2927C73 50.7366 67.8667 45.5854 61.3333 45.5854ZM61.3333 65.4878C56.9 65.4878 53.1667 61.7415 53.1667 57.2927C53.1667 52.8439 56.9 49.0976 61.3333 49.0976C65.7667 49.0976 69.5 52.8439 69.5 57.2927C69.5 61.7415 65.7667 65.4878 61.3333 65.4878Z" fill="white"/>
</svg>
