<svg width="90" height="90" viewBox="0 0 90 90" fill="none" xmlns="http://www.w3.org/2000/svg">
<rect x="1" y="1" width="88" height="88" rx="44" fill="#E67522"/>
<rect x="1" y="1" width="88" height="88" rx="44" stroke="white" stroke-width="2"/>
<path d="M55.9432 42.4286C60.0177 42.4286 63.2823 38.9829 63.2823 34.7143C63.2823 30.4457 60.0177 27 55.9432 27C51.8686 27 48.5795 30.4457 48.5795 34.7143C48.5795 38.9829 51.8686 42.4286 55.9432 42.4286ZM36.3068 42.4286C40.3814 42.4286 43.6459 38.9829 43.6459 34.7143C43.6459 30.4457 40.3814 27 36.3068 27C32.2323 27 28.9432 30.4457 28.9432 34.7143C28.9432 38.9829 32.2323 42.4286 36.3068 42.4286ZM36.3068 47.5714C30.5877 47.5714 19.125 50.58 19.125 56.5714V60.4286C19.125 61.8429 20.2295 63 21.5795 63H51.0341C52.3841 63 53.4886 61.8429 53.4886 60.4286V56.5714C53.4886 50.58 42.0259 47.5714 36.3068 47.5714ZM55.9432 47.5714C55.2314 47.5714 54.4214 47.6229 53.5623 47.7C53.6114 47.7257 53.6359 47.7771 53.6605 47.8029C56.4586 49.9371 58.3977 52.7914 58.3977 56.5714V60.4286C58.3977 61.3286 58.2259 62.2029 57.9559 63H70.6705C72.0205 63 73.125 61.8429 73.125 60.4286V56.5714C73.125 50.58 61.6623 47.5714 55.9432 47.5714Z" fill="white"/>
</svg>
